<svg width="95" height="133" fill="none" xmlns="http://www.w3.org/2000/svg"><rect width="95" height="133" rx="4" fill="#fff"/><path d="M9.264 6.816c0 1.8-.648 2.544-2.208 2.544H6.48v2.016h2.784V24h2.4V6h-2.4v.816ZM20.03 24.24c3.168 0 5.064-1.944 5.064-5.904v-6.672c0-3.936-1.896-5.904-5.064-5.904-3.144 0-5.064 1.968-5.064 5.904v6.672c0 3.96 1.92 5.904 5.064 5.904Zm0-2.208c-1.68 0-2.664-.984-2.664-3.696v-6.672c0-2.688 1.008-3.696 2.664-3.696 1.656 0 2.664 1.008 2.664 3.696v6.672c0 2.712-1.008 3.696-2.664 3.696Zm65.706 103.152c0-1.8.648-2.544 2.208-2.544h.576v-2.016h-2.784V108h-2.4v18h2.4v-.816ZM74.97 107.76c-3.168 0-5.064 1.944-5.064 5.904v6.672c0 3.936 1.896 5.904 5.064 5.904 3.144 0 5.064-1.968 5.064-5.904v-6.672c0-3.96-1.92-5.904-5.064-5.904Zm0 2.208c1.68 0 2.664.984 2.664 3.696v6.672c0 2.688-1.008 3.696-2.664 3.696-1.656 0-2.664-1.008-2.664-3.696v-6.672c0-2.712 1.008-3.696 2.664-3.696Z" fill="#000"/><path fill-rule="evenodd" clip-rule="evenodd" d="M48.319 66.777c1.093-1.56 2.799-4.897 2.799-7.272 0-2.649-1.447-4.505-3.552-4.505-2.368 0-3.684 1.89-3.684 4.505 0 1.903 1.635 5.342 2.73 7.077-1.604-1.15-5.012-2.961-6.836-2.961-2.44 0-4.202 1.41-4.202 3.95 0 2.257 1.732 3.808 4.202 3.808 2.326 0 5.716-2.063 7.095-3.238L43.614 80c3.104-1.18 5.075-1.202 8.04 0L48.15 68.13c1.285 1.14 4.697 3.248 7.075 3.248 2.47 0 4.202-1.551 4.202-3.808 0-2.54-1.762-3.95-4.202-3.95-1.894 0-5.422 1.998-6.905 3.156Zm-32.26-34.951c.262-.374.671-1.175.671-1.745 0-.635-.347-1.081-.852-1.081-.568 0-.884.453-.884 1.081 0 .457.392 1.282.655 1.698-.385-.276-1.203-.71-1.64-.71-.586 0-1.009.338-1.009.948 0 .541.416.914 1.008.914.559 0 1.373-.495 1.704-.777L14.93 35c.745-.283 1.218-.288 1.93 0l-.842-2.849c.309.274 1.127.78 1.698.78.593 0 1.009-.372 1.009-.914 0-.61-.423-.948-1.009-.948-.454 0-1.3.48-1.657.757Zm64 68.348c.262.374.672 1.175.672 1.745 0 .635-.348 1.081-.853 1.081-.568 0-.884-.453-.884-1.081 0-.457.392-1.282.655-1.698-.385.276-1.203.71-1.64.71-.586 0-1.009-.338-1.009-.948 0-.541.416-.914 1.008-.914.559 0 1.373.495 1.704.777L78.93 97c.745.283 1.218.288 1.93 0l-.842 2.849c.309-.274 1.127-.78 1.698-.78.593 0 1.009.373 1.009.914 0 .61-.423.948-1.009.948-.454 0-1.3-.479-1.657-.757Z" fill="#000"/></svg>