<svg width="95" height="133" fill="none" xmlns="http://www.w3.org/2000/svg"><rect width="95" height="133" rx="4" fill="#fff"/><path d="M9.264 6.816c0 1.8-.648 2.544-2.208 2.544H6.48v2.016h2.784V24h2.4V6h-2.4v.816ZM20.03 24.24c3.168 0 5.064-1.944 5.064-5.904v-6.672c0-3.936-1.896-5.904-5.064-5.904-3.144 0-5.064 1.968-5.064 5.904v6.672c0 3.96 1.92 5.904 5.064 5.904Zm0-2.208c-1.68 0-2.664-.984-2.664-3.696v-6.672c0-2.688 1.008-3.696 2.664-3.696 1.656 0 2.664 1.008 2.664 3.696v6.672c0 2.712-1.008 3.696-2.664 3.696Zm65.706 103.152c0-1.8.648-2.544 2.208-2.544h.576v-2.016h-2.784V108h-2.4v18h2.4v-.816ZM74.97 107.76c-3.168 0-5.064 1.944-5.064 5.904v6.672c0 3.936 1.896 5.904 5.064 5.904 3.144 0 5.064-1.968 5.064-5.904v-6.672c0-3.96-1.92-5.904-5.064-5.904Zm0 2.208c1.68 0 2.664.984 2.664 3.696v6.672c0 2.688-1.008 3.696-2.664 3.696-1.656 0-2.664-1.008-2.664-3.696v-6.672c0-2.712 1.008-3.696 2.664-3.696Z" fill="#000"/><path d="m48 54 10.27 12.782L48 79.499 37.73 66.782 48 54ZM15.375 28l2.718 3.383-2.718 3.366-2.719-3.366L15.375 28Zm64 69 2.718 3.383-2.718 3.367-2.719-3.367L79.375 97Z" fill="#FF4545"/></svg>