<svg width="95" height="133" fill="none" xmlns="http://www.w3.org/2000/svg"><rect width="95" height="133" rx="4" fill="#fff"/><path d="M9.264 6.816c0 1.8-.648 2.544-2.208 2.544H6.48v2.016h2.784V24h2.4V6h-2.4v.816ZM20.03 24.24c3.168 0 5.064-1.944 5.064-5.904v-6.672c0-3.936-1.896-5.904-5.064-5.904-3.144 0-5.064 1.968-5.064 5.904v6.672c0 3.96 1.92 5.904 5.064 5.904Zm0-2.208c-1.68 0-2.664-.984-2.664-3.696v-6.672c0-2.688 1.008-3.696 2.664-3.696 1.656 0 2.664 1.008 2.664 3.696v6.672c0 2.712-1.008 3.696-2.664 3.696Zm65.706 103.152c0-1.8.648-2.544 2.208-2.544h.576v-2.016h-2.784V108h-2.4v18h2.4v-.816ZM74.97 107.76c-3.168 0-5.064 1.944-5.064 5.904v6.672c0 3.936 1.896 5.904 5.064 5.904 3.144 0 5.064-1.968 5.064-5.904v-6.672c0-3.96-1.92-5.904-5.064-5.904Zm0 2.208c1.68 0 2.664.984 2.664 3.696v6.672c0 2.688-1.008 3.696-2.664 3.696-1.656 0-2.664-1.008-2.664-3.696v-6.672c0-2.712 1.008-3.696 2.664-3.696Z" fill="#000"/><path fill-rule="evenodd" clip-rule="evenodd" d="M47.53 57.279C45.696 55.224 43.233 54 41.083 54c-3.674 0-7.9 2.069-8.083 8.275.17 6.124 6.86 11.271 13.264 16.199.48.37.958.737 1.432 1.104l.705-.545c6.59-5.099 13.446-10.402 13.624-16.758C61.84 56.07 57.249 54 53.575 54c-2.151 0-4.406 1.225-6.045 3.279ZM15.521 34.993l-.334-.252c-1.539-1.156-3.146-2.363-3.187-3.8.044-1.456 1.06-1.941 1.942-1.941.517 0 1.108.287 1.549.769.394-.482.935-.769 1.452-.769.883 0 1.986.485 2.03 1.941-.042 1.491-1.69 2.735-3.273 3.931l-.16.12-.01.008-.009-.007Zm63.931 63.014.334.236c1.54 1.087 3.146 2.223 3.187 3.574-.044 1.369-1.059 1.825-1.942 1.825-.516 0-1.108-.27-1.549-.723-.393.453-.935.723-1.452.723-.883 0-1.986-.456-2.03-1.825.043-1.402 1.69-2.572 3.273-3.697l.16-.113.01-.007.009.007Z" fill="#FF4545"/></svg>