<svg width="95" height="133" fill="none" xmlns="http://www.w3.org/2000/svg"><rect width="95" height="133" rx="4" fill="#fff"/><path d="M9.264 6.816c0 1.8-.648 2.544-2.208 2.544H6.48v2.016h2.784V24h2.4V6h-2.4v.816ZM20.03 24.24c3.168 0 5.064-1.944 5.064-5.904v-6.672c0-3.936-1.896-5.904-5.064-5.904-3.144 0-5.064 1.968-5.064 5.904v6.672c0 3.96 1.92 5.904 5.064 5.904Zm0-2.208c-1.68 0-2.664-.984-2.664-3.696v-6.672c0-2.688 1.008-3.696 2.664-3.696 1.656 0 2.664 1.008 2.664 3.696v6.672c0 2.712-1.008 3.696-2.664 3.696Zm65.706 103.152c0-1.8.648-2.544 2.208-2.544h.576v-2.016h-2.784V108h-2.4v18h2.4v-.816ZM74.97 107.76c-3.168 0-5.064 1.944-5.064 5.904v6.672c0 3.936 1.896 5.904 5.064 5.904 3.144 0 5.064-1.968 5.064-5.904v-6.672c0-3.96-1.92-5.904-5.064-5.904Zm0 2.208c1.68 0 2.664.984 2.664 3.696v6.672c0 2.688-1.008 3.696-2.664 3.696-1.656 0-2.664-1.008-2.664-3.696v-6.672c0-2.712 1.008-3.696 2.664-3.696Z" fill="#000"/><path fill-rule="evenodd" clip-rule="evenodd" d="M47.495 76.722C49.328 78.775 51.79 80 53.942 80c3.674 0 7.899-2.069 8.083-8.275-.171-6.124-6.86-11.271-13.265-16.199-.48-.37-.958-.737-1.431-1.104l-.705.546c-6.59 5.098-13.447 10.4-13.624 16.757C33.184 77.93 37.776 80 41.45 80c2.15 0 4.406-1.225 6.045-3.278ZM15.452 29.007l.334.252c1.54 1.156 3.146 2.363 3.187 3.8C18.93 34.515 17.914 35 17.031 35c-.516 0-1.108-.287-1.549-.769-.393.482-.935.769-1.452.769-.882 0-1.986-.485-2.03-1.941.043-1.491 1.69-2.735 3.273-3.931a687.063 687.063 0 0 1 .17-.128l.009.007Zm64.069 74.628-.334-.236c-1.539-1.087-3.146-2.223-3.187-3.574.044-1.369 1.06-1.825 1.942-1.825.517 0 1.108.27 1.549.723.394-.453.935-.723 1.452-.723.883 0 1.986.456 2.03 1.825-.042 1.402-1.69 2.572-3.273 3.697l-.16.113-.01.007a.053.053 0 0 1-.009-.007Z" fill="#000"/></svg>