<svg width="95" height="133" fill="none" xmlns="http://www.w3.org/2000/svg"><rect width="95" height="133" rx="4" fill="#fff"/><path d="M9.936 11.664c0-2.64 1.056-3.696 2.664-3.696 1.536 0 2.472.912 2.472 3.12v.216h2.4v-.408c0-3.36-2.112-5.136-4.872-5.136-2.88 0-5.064 1.968-5.064 5.712v7.056c0 3.744 2.184 5.712 5.064 5.712s5.064-1.896 5.064-5.472v-.48c0-3.648-1.968-5.472-4.44-5.472-1.344 0-2.52.528-3.288 1.872v-3.024Zm0 6.648c0-2.352 1.032-3.288 2.664-3.288 1.68 0 2.664.936 2.664 3.288v.432c0 2.304-1.032 3.288-2.664 3.288-1.632 0-2.664-.96-2.664-3.288v-.432Zm75.128 102.024c0 2.64-1.056 3.696-2.664 3.696-1.536 0-2.472-.912-2.472-3.12v-.216h-2.4v.408c0 3.36 2.112 5.136 4.872 5.136 2.88 0 5.064-1.968 5.064-5.712v-7.056c0-3.744-2.184-5.712-5.064-5.712s-5.064 1.896-5.064 5.472v.48c0 3.648 1.968 5.472 4.44 5.472 1.344 0 2.52-.528 3.288-1.872v3.024Zm0-6.648c0 2.352-1.032 3.288-2.664 3.288-1.68 0-2.664-.936-2.664-3.288v-.432c0-2.304 1.032-3.288 2.664-3.288 1.632 0 2.664.96 2.664 3.288v.432Z" fill="#000"/><path fill-rule="evenodd" clip-rule="evenodd" d="M48.319 66.777c1.093-1.56 2.799-4.897 2.799-7.272 0-2.649-1.447-4.505-3.552-4.505-2.368 0-3.684 1.89-3.684 4.505 0 1.903 1.635 5.342 2.73 7.077-1.604-1.15-5.012-2.961-6.836-2.961-2.44 0-4.202 1.41-4.202 3.95 0 2.257 1.732 3.808 4.202 3.808 2.326 0 5.716-2.063 7.095-3.238L43.614 80c3.104-1.18 5.075-1.202 8.04 0L48.15 68.13c1.285 1.14 4.697 3.248 7.075 3.248 2.47 0 4.202-1.551 4.202-3.808 0-2.54-1.762-3.95-4.202-3.95-1.894 0-5.422 1.998-6.905 3.156Zm-36.26-34.951c.262-.374.671-1.175.671-1.745 0-.635-.347-1.081-.852-1.081-.568 0-.884.453-.884 1.081 0 .457.392 1.282.655 1.698-.385-.276-1.203-.71-1.64-.71-.586 0-1.009.338-1.009.948 0 .541.416.914 1.008.914.559 0 1.373-.495 1.704-.777L10.93 35c.745-.283 1.218-.288 1.93 0l-.842-2.849c.309.274 1.127.78 1.698.78.593 0 1.009-.372 1.009-.914 0-.61-.423-.948-1.009-.948-.454 0-1.3.48-1.657.757Zm71 68.348c.262.374.672 1.175.672 1.745 0 .635-.348 1.081-.853 1.081-.568 0-.884-.453-.884-1.081 0-.457.392-1.282.655-1.698-.385.276-1.203.71-1.64.71-.586 0-1.009-.338-1.009-.948 0-.541.416-.914 1.008-.914.559 0 1.373.495 1.704.777L81.93 97c.745.283 1.218.288 1.93 0l-.842 2.849c.309-.274 1.127-.78 1.698-.78.593 0 1.009.373 1.009.914 0 .61-.423.948-1.009.948-.454 0-1.3-.479-1.657-.757Z" fill="#000"/></svg>