<svg width="95" height="133" fill="none" xmlns="http://www.w3.org/2000/svg"><rect width="95" height="133" rx="4" fill="#fff"/><path d="M9.936 11.664c0-2.64 1.056-3.696 2.664-3.696 1.536 0 2.472.912 2.472 3.12v.216h2.4v-.408c0-3.36-2.112-5.136-4.872-5.136-2.88 0-5.064 1.968-5.064 5.712v7.056c0 3.744 2.184 5.712 5.064 5.712s5.064-1.896 5.064-5.472v-.48c0-3.648-1.968-5.472-4.44-5.472-1.344 0-2.52.528-3.288 1.872v-3.024Zm0 6.648c0-2.352 1.032-3.288 2.664-3.288 1.68 0 2.664.936 2.664 3.288v.432c0 2.304-1.032 3.288-2.664 3.288-1.632 0-2.664-.96-2.664-3.288v-.432Zm75.128 102.024c0 2.64-1.056 3.696-2.664 3.696-1.536 0-2.472-.912-2.472-3.12v-.216h-2.4v.408c0 3.36 2.112 5.136 4.872 5.136 2.88 0 5.064-1.968 5.064-5.712v-7.056c0-3.744-2.184-5.712-5.064-5.712s-5.064 1.896-5.064 5.472v.48c0 3.648 1.968 5.472 4.44 5.472 1.344 0 2.52-.528 3.288-1.872v3.024Zm0-6.648c0 2.352-1.032 3.288-2.664 3.288-1.68 0-2.664-.936-2.664-3.288v-.432c0-2.304 1.032-3.288 2.664-3.288 1.632 0 2.664.96 2.664 3.288v.432Z" fill="#000"/><path fill-rule="evenodd" clip-rule="evenodd" d="M47.53 57.279C45.696 55.224 43.233 54 41.083 54c-3.674 0-7.9 2.069-8.083 8.275.17 6.124 6.86 11.271 13.264 16.199.48.37.958.737 1.432 1.104l.705-.545c6.59-5.099 13.446-10.402 13.624-16.758C61.84 56.07 57.249 54 53.575 54c-2.151 0-4.406 1.225-6.045 3.279ZM12.521 34.993l-.334-.252c-1.539-1.156-3.146-2.363-3.187-3.8C9.044 29.485 10.06 29 10.942 29c.517 0 1.108.287 1.549.769.394-.482.935-.77 1.452-.77.883 0 1.986.486 2.03 1.942-.042 1.491-1.69 2.735-3.273 3.931l-.16.12-.01.008-.009-.007Zm69.931 63.014.334.237c1.54 1.087 3.146 2.222 3.187 3.573-.044 1.369-1.059 1.825-1.942 1.825-.516 0-1.108-.27-1.549-.723-.393.453-.935.723-1.452.723-.883 0-1.986-.456-2.03-1.825.043-1.402 1.69-2.572 3.273-3.697l.16-.113.01-.007.009.007Z" fill="#FF4545"/></svg>