<svg width="95" height="133" fill="none" xmlns="http://www.w3.org/2000/svg"><rect width="95" height="133" rx="4" fill="#fff"/><path d="M11.616 22.776c0-6.576 1.656-9.264 3.984-13.776V6H6.432v2.208h7.2c-2.352 4.392-4.416 7.92-4.416 14.976V24h2.4v-1.224Zm71.768 86.448c0 6.576-1.656 9.264-3.984 13.776v3h9.168v-2.208h-7.2c2.352-4.392 4.416-7.92 4.416-14.976V108h-2.4v1.224Z" fill="#000"/><path d="m48 54 10.27 12.782L48 79.499 37.73 66.782 48 54ZM12.375 28l2.718 3.383-2.718 3.366-2.719-3.366L12.375 28Zm70 69 2.718 3.383-2.718 3.367-2.719-3.367L82.375 97Z" fill="#FF4545"/></svg>