<svg width="95" height="133" fill="none" xmlns="http://www.w3.org/2000/svg"><rect width="95" height="133" rx="4" fill="#fff"/><path d="M11.616 22.776c0-6.576 1.656-9.264 3.984-13.776V6H6.432v2.208h7.2c-2.352 4.392-4.416 7.92-4.416 14.976V24h2.4v-1.224Zm71.768 86.448c0 6.576-1.656 9.264-3.984 13.776v3h9.168v-2.208h-7.2c2.352-4.392 4.416-7.92 4.416-14.976V108h-2.4v1.224Z" fill="#000"/><path fill-rule="evenodd" clip-rule="evenodd" d="M47.53 57.279C45.696 55.224 43.233 54 41.083 54c-3.674 0-7.9 2.069-8.083 8.275.17 6.124 6.86 11.271 13.264 16.199.48.37.958.737 1.432 1.104l.705-.545c6.59-5.099 13.446-10.402 13.624-16.758C61.84 56.07 57.249 54 53.575 54c-2.151 0-4.406 1.225-6.045 3.279ZM12.521 34.993l-.334-.252c-1.539-1.156-3.146-2.363-3.187-3.8C9.044 29.485 10.06 29 10.942 29c.517 0 1.108.287 1.549.769.394-.482.935-.77 1.452-.77.883 0 1.986.486 2.03 1.942-.042 1.491-1.69 2.735-3.273 3.931l-.16.12-.01.008-.009-.007Zm69.931 63.014.334.237c1.54 1.087 3.146 2.222 3.187 3.573-.044 1.369-1.059 1.825-1.942 1.825-.516 0-1.108-.27-1.549-.723-.393.453-.935.723-1.452.723-.883 0-1.986-.456-2.03-1.825.043-1.402 1.69-2.572 3.273-3.697l.16-.113.01-.007.009.007Z" fill="#FF4545"/></svg>