<svg width="95" height="133" fill="none" xmlns="http://www.w3.org/2000/svg"><rect width="95" height="133" rx="4" fill="#fff"/><path d="M7.2 18.36v1.056c0 3.144 2.304 4.824 5.16 4.824 2.856 0 5.16-1.68 5.16-4.824V18.36c0-1.944-1.056-3.288-2.616-3.96 1.248-.648 2.088-1.824 2.088-3.504v-.864c0-2.784-2.064-4.272-4.632-4.272-2.568 0-4.632 1.488-4.632 4.272v.864c0 1.68.84 2.856 2.088 3.504-1.56.672-2.616 2.016-2.616 3.96Zm2.928-8.112c0-1.608.936-2.28 2.232-2.28 1.32 0 2.232.672 2.232 2.28v.624c0 1.728-.864 2.472-2.232 2.472-1.344 0-2.232-.744-2.232-2.472v-.624ZM9.6 18.384c0-2.016 1.104-2.832 2.76-2.832 1.68 0 2.76.816 2.76 2.832v.816c0 1.968-1.08 2.832-2.76 2.832-1.656 0-2.76-.864-2.76-2.832v-.816Zm78.2 95.256v-1.056c0-3.144-2.304-4.824-5.16-4.824-2.856 0-5.16 1.68-5.16 4.824v1.056c0 1.944 1.056 3.288 2.616 3.96-1.248.648-2.088 1.824-2.088 3.504v.864c0 2.784 2.064 4.272 4.632 4.272 2.568 0 4.632-1.488 4.632-4.272v-.864c0-1.68-.84-2.856-2.088-3.504 1.56-.672 2.616-2.016 2.616-3.96Zm-2.928 8.112c0 1.608-.936 2.28-2.232 2.28-1.32 0-2.232-.672-2.232-2.28v-.624c0-1.728.864-2.472 2.232-2.472 1.344 0 2.232.744 2.232 2.472v.624Zm.528-8.136c0 2.016-1.104 2.832-2.76 2.832-1.68 0-2.76-.816-2.76-2.832v-.816c0-1.968 1.08-2.832 2.76-2.832 1.656 0 2.76.864 2.76 2.832v.816Z" fill="#000"/><path d="m48 54 10.27 12.782L48 79.499 37.73 66.782 48 54ZM12.375 28l2.718 3.383-2.718 3.366-2.719-3.366L12.375 28Zm70 69 2.718 3.383-2.718 3.367-2.719-3.367L82.375 97Z" fill="#FF4545"/></svg>