<svg width="95" height="133" fill="none" xmlns="http://www.w3.org/2000/svg"><rect width="95" height="133" rx="4" fill="#fff"/><path d="M7.2 18.36v1.056c0 3.144 2.304 4.824 5.16 4.824 2.856 0 5.16-1.68 5.16-4.824V18.36c0-1.944-1.056-3.288-2.616-3.96 1.248-.648 2.088-1.824 2.088-3.504v-.864c0-2.784-2.064-4.272-4.632-4.272-2.568 0-4.632 1.488-4.632 4.272v.864c0 1.68.84 2.856 2.088 3.504-1.56.672-2.616 2.016-2.616 3.96Zm2.928-8.112c0-1.608.936-2.28 2.232-2.28 1.32 0 2.232.672 2.232 2.28v.624c0 1.728-.864 2.472-2.232 2.472-1.344 0-2.232-.744-2.232-2.472v-.624ZM9.6 18.384c0-2.016 1.104-2.832 2.76-2.832 1.68 0 2.76.816 2.76 2.832v.816c0 1.968-1.08 2.832-2.76 2.832-1.656 0-2.76-.864-2.76-2.832v-.816Zm78.2 95.256v-1.056c0-3.144-2.304-4.824-5.16-4.824-2.856 0-5.16 1.68-5.16 4.824v1.056c0 1.944 1.056 3.288 2.616 3.96-1.248.648-2.088 1.824-2.088 3.504v.864c0 2.784 2.064 4.272 4.632 4.272 2.568 0 4.632-1.488 4.632-4.272v-.864c0-1.68-.84-2.856-2.088-3.504 1.56-.672 2.616-2.016 2.616-3.96Zm-2.928 8.112c0 1.608-.936 2.28-2.232 2.28-1.32 0-2.232-.672-2.232-2.28v-.624c0-1.728.864-2.472 2.232-2.472 1.344 0 2.232.744 2.232 2.472v.624Zm.528-8.136c0 2.016-1.104 2.832-2.76 2.832-1.68 0-2.76-.816-2.76-2.832v-.816c0-1.968 1.08-2.832 2.76-2.832 1.656 0 2.76.864 2.76 2.832v.816Z" fill="#000"/><path fill-rule="evenodd" clip-rule="evenodd" d="M47.53 57.279C45.696 55.224 43.233 54 41.083 54c-3.674 0-7.9 2.069-8.083 8.275.17 6.124 6.86 11.271 13.264 16.199.48.37.958.737 1.432 1.104l.705-.545c6.59-5.099 13.446-10.402 13.624-16.758C61.84 56.07 57.249 54 53.575 54c-2.151 0-4.406 1.225-6.045 3.279ZM12.521 34.993l-.334-.252c-1.539-1.156-3.146-2.363-3.187-3.8C9.044 29.485 10.06 29 10.942 29c.517 0 1.108.287 1.549.769.394-.482.935-.77 1.452-.77.883 0 1.986.486 2.03 1.942-.042 1.491-1.69 2.735-3.273 3.931l-.16.12-.01.008-.009-.007Zm69.931 63.014.334.237c1.54 1.087 3.146 2.222 3.187 3.573-.044 1.369-1.059 1.825-1.942 1.825-.516 0-1.108-.27-1.549-.723-.393.453-.935.723-1.452.723-.883 0-1.986-.456-2.03-1.825.043-1.402 1.69-2.572 3.273-3.697l.16-.113.01-.007.009.007Z" fill="#FF4545"/></svg>