<svg width="95" height="133" fill="none" xmlns="http://www.w3.org/2000/svg"><rect width="95" height="133" rx="4" fill="#fff"/><path d="M7.2 18.36v1.056c0 3.144 2.304 4.824 5.16 4.824 2.856 0 5.16-1.68 5.16-4.824V18.36c0-1.944-1.056-3.288-2.616-3.96 1.248-.648 2.088-1.824 2.088-3.504v-.864c0-2.784-2.064-4.272-4.632-4.272-2.568 0-4.632 1.488-4.632 4.272v.864c0 1.68.84 2.856 2.088 3.504-1.56.672-2.616 2.016-2.616 3.96Zm2.928-8.112c0-1.608.936-2.28 2.232-2.28 1.32 0 2.232.672 2.232 2.28v.624c0 1.728-.864 2.472-2.232 2.472-1.344 0-2.232-.744-2.232-2.472v-.624ZM9.6 18.384c0-2.016 1.104-2.832 2.76-2.832 1.68 0 2.76.816 2.76 2.832v.816c0 1.968-1.08 2.832-2.76 2.832-1.656 0-2.76-.864-2.76-2.832v-.816Zm78.2 95.256v-1.056c0-3.144-2.304-4.824-5.16-4.824-2.856 0-5.16 1.68-5.16 4.824v1.056c0 1.944 1.056 3.288 2.616 3.96-1.248.648-2.088 1.824-2.088 3.504v.864c0 2.784 2.064 4.272 4.632 4.272 2.568 0 4.632-1.488 4.632-4.272v-.864c0-1.68-.84-2.856-2.088-3.504 1.56-.672 2.616-2.016 2.616-3.96Zm-2.928 8.112c0 1.608-.936 2.28-2.232 2.28-1.32 0-2.232-.672-2.232-2.28v-.624c0-1.728.864-2.472 2.232-2.472 1.344 0 2.232.744 2.232 2.472v.624Zm.528-8.136c0 2.016-1.104 2.832-2.76 2.832-1.68 0-2.76-.816-2.76-2.832v-.816c0-1.968 1.08-2.832 2.76-2.832 1.656 0 2.76.864 2.76 2.832v.816Z" fill="#000"/><path fill-rule="evenodd" clip-rule="evenodd" d="M47.495 76.722C49.328 78.775 51.79 80 53.942 80c3.674 0 7.899-2.069 8.083-8.275-.171-6.124-6.86-11.271-13.265-16.199-.48-.37-.958-.737-1.431-1.104l-.705.546c-6.59 5.098-13.447 10.4-13.624 16.757C33.184 77.93 37.776 80 41.45 80c2.15 0 4.406-1.225 6.045-3.278ZM12.452 29.007l.334.252c1.54 1.156 3.146 2.363 3.187 3.8C15.93 34.515 14.914 35 14.031 35c-.516 0-1.108-.287-1.549-.769-.393.482-.935.769-1.452.769-.882 0-1.986-.485-2.03-1.941.043-1.491 1.69-2.735 3.273-3.931a687.063 687.063 0 0 1 .17-.128l.009.007Zm70.069 74.628-.334-.236c-1.539-1.087-3.146-2.223-3.187-3.574.044-1.369 1.06-1.825 1.942-1.825.517 0 1.108.27 1.549.723.394-.453.935-.723 1.452-.723.883 0 1.986.456 2.03 1.825-.042 1.402-1.69 2.572-3.273 3.697l-.16.113-.01.007a.053.053 0 0 1-.009-.007Z" fill="#000"/></svg>