<svg width="95" height="133" fill="none" xmlns="http://www.w3.org/2000/svg"><rect width="95" height="133" rx="4" fill="#fff"/><path d="M15.264 18.336c0 2.64-1.056 3.696-2.664 3.696-1.536 0-2.472-.912-2.472-3.12v-.216h-2.4v.408c0 3.36 2.112 5.136 4.872 5.136 2.88 0 5.064-1.968 5.064-5.712v-7.056c0-3.744-2.184-5.712-5.064-5.712s-5.064 1.896-5.064 5.472v.48c0 3.648 1.968 5.472 4.44 5.472 1.344 0 2.52-.528 3.288-1.872v3.024Zm0-6.648c0 2.352-1.032 3.288-2.664 3.288-1.68 0-2.664-.936-2.664-3.288v-.432c0-2.304 1.032-3.288 2.664-3.288 1.632 0 2.664.96 2.664 3.288v.432Zm64.472 101.976c0-2.64 1.056-3.696 2.664-3.696 1.536 0 2.472.912 2.472 3.12v.216h2.4v-.408c0-3.36-2.112-5.136-4.872-5.136-2.88 0-5.064 1.968-5.064 5.712v7.056c0 3.744 2.184 5.712 5.064 5.712s5.064-1.896 5.064-5.472v-.48c0-3.648-1.968-5.472-4.44-5.472-1.344 0-2.52.528-3.288 1.872v-3.024Zm0 6.648c0-2.352 1.032-3.288 2.664-3.288 1.68 0 2.664.936 2.664 3.288v.432c0 2.304-1.032 3.288-2.664 3.288-1.632 0-2.664-.96-2.664-3.288v-.432Z" fill="#000"/><path d="m48 54 10.27 12.782L48 79.499 37.73 66.782 48 54ZM12.375 28l2.718 3.383-2.718 3.366-2.719-3.366L12.375 28Zm70 69 2.718 3.383-2.718 3.367-2.719-3.367L82.375 97Z" fill="#FF4545"/></svg>