<svg width="95" height="133" fill="none" xmlns="http://www.w3.org/2000/svg"><rect width="95" height="133" rx="4" fill="#fff"/><path d="M10.32 6 6.288 24h2.424l.936-4.416h4.944L15.528 24h2.424L13.92 6h-3.6Zm-.192 11.376L12.12 7.92l1.992 9.456h-3.984ZM84.68 126l4.032-18h-2.424l-.936 4.416h-4.944L79.472 108h-2.424l4.032 18h3.6Zm.192-11.376-1.992 9.456-1.992-9.456h3.984Z" fill="#000"/><path d="m48 54 10.27 12.782L48 79.499 37.73 66.782 48 54ZM12.375 28l2.718 3.383-2.718 3.366-2.719-3.366L12.375 28Zm70 69 2.718 3.383-2.718 3.367-2.719-3.367L82.375 97Z" fill="#FF4545"/></svg>