<svg width="95" height="133" fill="none" xmlns="http://www.w3.org/2000/svg"><rect width="95" height="133" rx="4" fill="#fff"/><path d="M10.32 6 6.288 24h2.424l.936-4.416h4.944L15.528 24h2.424L13.92 6h-3.6Zm-.192 11.376L12.12 7.92l1.992 9.456h-3.984ZM84.68 126l4.032-18h-2.424l-.936 4.416h-4.944L79.472 108h-2.424l4.032 18h3.6Zm.192-11.376-1.992 9.456-1.992-9.456h3.984Z" fill="#000"/><path fill-rule="evenodd" clip-rule="evenodd" d="M47.495 76.722C49.328 78.775 51.79 80 53.942 80c3.674 0 7.899-2.069 8.083-8.275-.171-6.124-6.86-11.271-13.265-16.199-.48-.37-.958-.737-1.431-1.104l-.705.546c-6.59 5.098-13.447 10.4-13.624 16.757C33.184 77.93 37.776 80 41.45 80c2.15 0 4.406-1.225 6.045-3.278ZM12.452 29.007l.334.252c1.54 1.156 3.146 2.363 3.187 3.8C15.93 34.515 14.914 35 14.031 35c-.516 0-1.108-.287-1.549-.769-.393.482-.935.769-1.452.769-.882 0-1.986-.485-2.03-1.941.043-1.491 1.69-2.735 3.273-3.931a687.063 687.063 0 0 1 .17-.128l.009.007Zm70.069 74.628-.334-.236c-1.539-1.087-3.146-2.223-3.187-3.574.044-1.369 1.06-1.825 1.942-1.825.517 0 1.108.27 1.549.723.394-.453.935-.723 1.452-.723.883 0 1.986.456 2.03 1.825-.042 1.402-1.69 2.572-3.273 3.697l-.16.113-.01.007a.053.053 0 0 1-.009-.007Z" fill="#000"/></svg>