<svg width="95" height="133" fill="none" xmlns="http://www.w3.org/2000/svg"><rect width="95" height="133" rx="4" fill="#fff"/><rect x="6" y="6" width="83" height="121" rx="4" fill="#C2F5FF"/><mask id="a" style="mask-type:alpha" maskUnits="userSpaceOnUse" x="6" y="6" width="83" height="121"><rect x="6" y="6" width="83" height="121" rx="4" fill="#E4FBFF"/></mask><g mask="url(#a)"><path fill-rule="evenodd" clip-rule="evenodd" d="M75.81 59.406C62.697 43.995 42.643 39.52 31.018 49.411l20.446 24.03C38.49 61.074 20.804 58.102 10.17 67.15l20.44 24.02C17.634 78.81-.046 75.843-10.677 84.888l47.486 55.81c10.631-9.046 10.532-26.973.409-41.76l20.438 24.022c10.634-9.047 10.532-26.98.402-41.768l20.446 24.029c11.625-9.89 10.42-30.403-2.694-45.814Z" fill="#A1EDFF"/><mask id="b" style="mask-type:alpha" maskUnits="userSpaceOnUse" x="-11" y="44" width="98" height="97"><path fill-rule="evenodd" clip-rule="evenodd" d="M75.81 59.406C62.697 43.995 42.643 39.52 31.018 49.411l20.446 24.03C38.49 61.074 20.804 58.102 10.17 67.15l20.44 24.02C17.634 78.81-.046 75.843-10.677 84.888l47.486 55.81c10.631-9.046 10.532-26.973.409-41.76l20.438 24.022c10.634-9.047 10.532-26.98.402-41.768l20.446 24.03c11.625-9.892 10.42-30.404-2.694-45.815Z" fill="#271A58"/></mask><g mask="url(#b)"><circle cx="61.861" cy="59.642" r="25.028" transform="rotate(-60.393 61.861 59.642)" fill="#75E5FF"/></g></g></svg>