<svg width="95" height="133" fill="none" xmlns="http://www.w3.org/2000/svg"><rect width="95" height="133" rx="4" fill="#fff"/><path d="M14.208 6v13.056c0 2.184-.96 2.976-2.424 2.976-1.44 0-2.424-.792-2.424-2.976v-1.344h-2.4v1.536c0 3.336 2.112 4.992 4.824 4.992 2.712 0 4.824-1.656 4.824-4.992V6h-2.4Zm66.584 120v-13.056c0-2.184.96-2.976 2.424-2.976 1.44 0 2.424.792 2.424 2.976v1.344h2.4v-1.536c0-3.336-2.112-4.992-4.824-4.992-2.712 0-4.824 1.656-4.824 4.992V126h2.4Z" fill="#000"/><path d="m48 54 10.27 12.782L48 79.499 37.73 66.782 48 54ZM12.375 28l2.718 3.383-2.718 3.366-2.719-3.366L12.375 28Zm70 69 2.718 3.383-2.718 3.367-2.719-3.367L82.375 97Z" fill="#FF4545"/></svg>