<svg width="95" height="133" fill="none" xmlns="http://www.w3.org/2000/svg"><rect width="95" height="133" rx="4" fill="#fff"/><path d="M14.208 6v13.056c0 2.184-.96 2.976-2.424 2.976-1.44 0-2.424-.792-2.424-2.976v-1.344h-2.4v1.536c0 3.336 2.112 4.992 4.824 4.992 2.712 0 4.824-1.656 4.824-4.992V6h-2.4Zm66.584 120v-13.056c0-2.184.96-2.976 2.424-2.976 1.44 0 2.424.792 2.424 2.976v1.344h2.4v-1.536c0-3.336-2.112-4.992-4.824-4.992-2.712 0-4.824 1.656-4.824 4.992V126h2.4Z" fill="#000"/><path fill-rule="evenodd" clip-rule="evenodd" d="M47.495 76.722C49.328 78.775 51.79 80 53.942 80c3.674 0 7.899-2.069 8.083-8.275-.171-6.124-6.86-11.271-13.265-16.199-.48-.37-.958-.737-1.431-1.104l-.705.546c-6.59 5.098-13.447 10.4-13.624 16.757C33.184 77.93 37.776 80 41.45 80c2.15 0 4.406-1.225 6.045-3.278ZM12.452 29.007l.334.252c1.54 1.156 3.146 2.363 3.187 3.8C15.93 34.515 14.914 35 14.031 35c-.516 0-1.108-.287-1.549-.769-.393.482-.935.769-1.452.769-.882 0-1.986-.485-2.03-1.941.043-1.491 1.69-2.735 3.273-3.931a687.063 687.063 0 0 1 .17-.128l.009.007Zm70.069 74.628-.334-.236c-1.539-1.087-3.146-2.223-3.187-3.574.044-1.369 1.06-1.825 1.942-1.825.517 0 1.108.27 1.549.723.394-.453.935-.723 1.452-.723.883 0 1.986.456 2.03 1.825-.042 1.402-1.69 2.572-3.273 3.697l-.16.113-.01.007a.053.053 0 0 1-.009-.007Z" fill="#000"/></svg>