<svg width="95" height="133" fill="none" xmlns="http://www.w3.org/2000/svg"><rect width="95" height="133" rx="4" fill="#fff"/><path d="M10.176 6h-2.4v18h2.4v-8.856L15.48 24h2.88l-5.688-9.384L18.072 6h-2.64l-5.256 8.76V6Zm74.648 120h2.4v-18h-2.4v8.856L79.52 108h-2.88l5.688 9.384-5.4 8.616h2.64l5.256-8.76V126Z" fill="#000"/><path d="m48 54 10.27 12.782L48 79.499 37.73 66.782 48 54ZM12.375 28l2.718 3.383-2.718 3.366-2.719-3.366L12.375 28Zm70 69 2.718 3.383-2.718 3.367-2.719-3.367L82.375 97Z" fill="#FF4545"/></svg>