<svg width="95" height="133" fill="none" xmlns="http://www.w3.org/2000/svg"><rect width="95" height="133" rx="4" fill="#fff"/><path d="M12.36 24.24c1.224 0 2.328-.456 2.784-1.56l.96 1.32h2.328l-1.584-2.184c.912-.768 1.296-2.088 1.296-3.72v-6.192c0-4.104-1.992-6.144-5.304-6.144-3.312 0-5.304 2.04-5.304 6.144v6.192c0 4.104 1.992 6.144 4.824 6.144Zm.48-2.208c-1.824 0-2.904-1.056-2.904-3.936v-6.192c0-2.88 1.104-3.936 2.904-3.936 1.824 0 2.904 1.056 2.904 3.936v6.192c0 .864-.096 1.56-.288 2.112l-1.752-2.448h-2.4l2.976 3.96c-.408.216-.888.312-1.44.312Zm69.8 85.728c-1.224 0-2.328.456-2.784 1.56l-.96-1.32h-2.328l1.584 2.184c-.912.768-1.296 2.088-1.296 3.72v6.192c0 4.104 1.992 6.144 5.304 6.144 3.312 0 5.304-2.04 5.304-6.144v-6.192c0-4.104-1.992-6.144-4.824-6.144Zm-.48 2.208c1.824 0 2.904 1.056 2.904 3.936v6.192c0 2.88-1.104 3.936-2.904 3.936-1.824 0-2.904-1.056-2.904-3.936v-6.192c0-.864.096-1.56.288-2.112l1.752 2.448h2.4l-2.976-3.96c.408-.216.888-.312 1.44-.312Z" fill="#000"/><path fill-rule="evenodd" clip-rule="evenodd" d="M48.319 66.777c1.093-1.56 2.799-4.897 2.799-7.272 0-2.649-1.447-4.505-3.552-4.505-2.368 0-3.684 1.89-3.684 4.505 0 1.903 1.635 5.342 2.73 7.077-1.604-1.15-5.012-2.961-6.836-2.961-2.44 0-4.202 1.41-4.202 3.95 0 2.257 1.732 3.808 4.202 3.808 2.326 0 5.716-2.063 7.095-3.238L43.614 80c3.104-1.18 5.075-1.202 8.04 0L48.15 68.13c1.285 1.14 4.697 3.248 7.075 3.248 2.47 0 4.202-1.551 4.202-3.808 0-2.54-1.762-3.95-4.202-3.95-1.894 0-5.422 1.998-6.905 3.156Zm-36.26-34.951c.262-.374.671-1.175.671-1.745 0-.635-.347-1.081-.852-1.081-.568 0-.884.453-.884 1.081 0 .457.392 1.282.655 1.698-.385-.276-1.203-.71-1.64-.71-.586 0-1.009.338-1.009.948 0 .541.416.914 1.008.914.559 0 1.373-.495 1.704-.777L10.93 35c.745-.283 1.218-.288 1.93 0l-.842-2.849c.309.274 1.127.78 1.698.78.593 0 1.009-.372 1.009-.914 0-.61-.423-.948-1.009-.948-.454 0-1.3.48-1.657.757Zm71 68.348c.262.374.672 1.175.672 1.745 0 .635-.348 1.081-.853 1.081-.568 0-.884-.453-.884-1.081 0-.457.392-1.282.655-1.698-.385.276-1.203.71-1.64.71-.586 0-1.009-.338-1.009-.948 0-.541.416-.914 1.008-.914.559 0 1.373.495 1.704.777L81.93 97c.745.283 1.218.288 1.93 0l-.842 2.849c.309-.274 1.127-.78 1.698-.78.593 0 1.009.373 1.009.914 0 .61-.423.948-1.009.948-.454 0-1.3-.479-1.657-.757Z" fill="#000"/></svg>