<svg width="95" height="133" fill="none" xmlns="http://www.w3.org/2000/svg"><rect width="95" height="133" rx="4" fill="#fff"/><path d="M12.36 24.24c1.224 0 2.328-.456 2.784-1.56l.96 1.32h2.328l-1.584-2.184c.912-.768 1.296-2.088 1.296-3.72v-6.192c0-4.104-1.992-6.144-5.304-6.144-3.312 0-5.304 2.04-5.304 6.144v6.192c0 4.104 1.992 6.144 4.824 6.144Zm.48-2.208c-1.824 0-2.904-1.056-2.904-3.936v-6.192c0-2.88 1.104-3.936 2.904-3.936 1.824 0 2.904 1.056 2.904 3.936v6.192c0 .864-.096 1.56-.288 2.112l-1.752-2.448h-2.4l2.976 3.96c-.408.216-.888.312-1.44.312Zm69.8 85.728c-1.224 0-2.328.456-2.784 1.56l-.96-1.32h-2.328l1.584 2.184c-.912.768-1.296 2.088-1.296 3.72v6.192c0 4.104 1.992 6.144 5.304 6.144 3.312 0 5.304-2.04 5.304-6.144v-6.192c0-4.104-1.992-6.144-4.824-6.144Zm-.48 2.208c1.824 0 2.904 1.056 2.904 3.936v6.192c0 2.88-1.104 3.936-2.904 3.936-1.824 0-2.904-1.056-2.904-3.936v-6.192c0-.864.096-1.56.288-2.112l1.752 2.448h2.4l-2.976-3.96c.408-.216.888-.312 1.44-.312Z" fill="#000"/><path d="m48 54 10.27 12.782L48 79.499 37.73 66.782 48 54ZM12.375 28l2.718 3.383-2.718 3.366-2.719-3.366L12.375 28Zm70 69 2.718 3.383-2.718 3.367-2.719-3.367L82.375 97Z" fill="#FF4545"/></svg>