<svg width="95" height="133" fill="none" xmlns="http://www.w3.org/2000/svg"><rect width="95" height="133" rx="4" fill="#fff"/><path d="M12.36 24.24c1.224 0 2.328-.456 2.784-1.56l.96 1.32h2.328l-1.584-2.184c.912-.768 1.296-2.088 1.296-3.72v-6.192c0-4.104-1.992-6.144-5.304-6.144-3.312 0-5.304 2.04-5.304 6.144v6.192c0 4.104 1.992 6.144 4.824 6.144Zm.48-2.208c-1.824 0-2.904-1.056-2.904-3.936v-6.192c0-2.88 1.104-3.936 2.904-3.936 1.824 0 2.904 1.056 2.904 3.936v6.192c0 .864-.096 1.56-.288 2.112l-1.752-2.448h-2.4l2.976 3.96c-.408.216-.888.312-1.44.312Zm69.8 85.728c-1.224 0-2.328.456-2.784 1.56l-.96-1.32h-2.328l1.584 2.184c-.912.768-1.296 2.088-1.296 3.72v6.192c0 4.104 1.992 6.144 5.304 6.144 3.312 0 5.304-2.04 5.304-6.144v-6.192c0-4.104-1.992-6.144-4.824-6.144Zm-.48 2.208c1.824 0 2.904 1.056 2.904 3.936v6.192c0 2.88-1.104 3.936-2.904 3.936-1.824 0-2.904-1.056-2.904-3.936v-6.192c0-.864.096-1.56.288-2.112l1.752 2.448h2.4l-2.976-3.96c.408-.216.888-.312 1.44-.312Z" fill="#000"/><path fill-rule="evenodd" clip-rule="evenodd" d="M47.53 57.279C45.696 55.224 43.233 54 41.083 54c-3.674 0-7.9 2.069-8.083 8.275.17 6.124 6.86 11.271 13.264 16.199.48.37.958.737 1.432 1.104l.705-.545c6.59-5.099 13.446-10.402 13.624-16.758C61.84 56.07 57.249 54 53.575 54c-2.151 0-4.406 1.225-6.045 3.279ZM12.521 34.993l-.334-.252c-1.539-1.156-3.146-2.363-3.187-3.8C9.044 29.485 10.06 29 10.942 29c.517 0 1.108.287 1.549.769.394-.482.935-.77 1.452-.77.883 0 1.986.486 2.03 1.942-.042 1.491-1.69 2.735-3.273 3.931l-.16.12-.01.008-.009-.007Zm69.931 63.014.334.237c1.54 1.087 3.146 2.222 3.187 3.573-.044 1.369-1.059 1.825-1.942 1.825-.516 0-1.108-.27-1.549-.723-.393.453-.935.723-1.452.723-.883 0-1.986-.456-2.03-1.825.043-1.402 1.69-2.572 3.273-3.697l.16-.113.01-.007.009.007Z" fill="#FF4545"/></svg>